<?xml version="1.0" encoding="UTF-8"?>
<svg width="38px" height="29px" viewBox="0 0 38 29" version="1.1" xmlns="http://www.w3.org/2000/svg" xmlns:xlink="http://www.w3.org/1999/xlink">
    <!-- Generator: Sketch 40.3 (33839) - http://www.bohemiancoding.com/sketch -->
    <title>Group</title>
    <desc>Created with Sketch.</desc>
    <defs></defs>
    <g id="Page-1" stroke="none" stroke-width="1" fill="none" fill-rule="evenodd">
        <g id="Desktop-HD" transform="translate(-858.000000, -1131.000000)" fill="#F7505A">
            <g id="Group" transform="translate(858.000000, 1131.000000)">
                <path d="M23.6691319,0.400562141 L22.3826539,0.0478814532 C22.2170669,-0.00733843212 22.0539503,0.0100267686 21.8953384,0.09983174 C21.736218,0.189709369 21.6287572,0.324634799 21.5735373,0.504390057 L13.8359235,27.2851625 C13.7807036,27.4649904 13.7979962,27.6345736 13.8878738,27.7934034 C13.9777514,27.9525239 14.1123862,28.0596941 14.2924321,28.114914 L15.5785468,28.46774 C15.7444971,28.5233958 15.9070325,28.5059579 16.0660803,28.4160076 C16.2252008,28.3256941 16.3324436,28.1912046 16.3875908,28.01174 L24.1254226,1.23053155 C24.1805698,1.05077629 24.1634226,0.881193117 24.0733996,0.722 C23.9834493,0.562879541 23.8489598,0.455709369 23.6691319,0.400562141 L23.6691319,0.400562141 Z" id="Shape"></path>
                <path d="M12.0733193,5.62843212 C12.0733193,5.44867686 12.0040765,5.28948375 11.8658088,5.15128872 L10.8284742,4.11402677 C10.6902065,3.97575908 10.531086,3.90644359 10.3513308,3.90644359 C10.1715755,3.90644359 10.0123824,3.97583174 9.87418738,4.11402677 L0.207510516,13.7807036 C0.0690248566,13.9189713 0,14.0780918 0,14.257847 C0,14.4376023 0.0692428298,14.5967228 0.207510516,14.7349178 L9.87411472,24.4015946 C10.0123098,24.5400803 10.1712122,24.6089598 10.3512581,24.6089598 C10.531304,24.6089598 10.6902065,24.5398623 10.8284015,24.4015946 L11.8657361,23.364914 C12.0040038,23.2267189 12.0732467,23.0675258 12.0732467,22.8875526 C12.0732467,22.7080153 12.0040038,22.5488948 11.8657361,22.4106998 L3.71331931,14.257847 L11.8658088,6.10557553 C12.0042945,5.9673805 12.0733193,5.80818738 12.0733193,5.62843212 L12.0733193,5.62843212 Z" id="Shape"></path>
                <path d="M37.7539809,13.7804857 L28.087086,4.1138088 C27.948891,3.97561377 27.7896979,3.90622562 27.6102333,3.90622562 C27.4301874,3.90622562 27.2715755,3.97561377 27.1328719,4.1138088 L26.0959732,5.15099809 C25.9577782,5.28926577 25.888826,5.44816826 25.888826,5.62814149 C25.888826,5.80811472 25.9577055,5.96708987 26.0959732,6.10528489 L34.248608,14.2577744 L26.0959732,22.4106998 C25.9577782,22.5488948 25.888826,22.708088 25.888826,22.8875526 C25.888826,23.0675985 25.9577055,23.2267189 26.0959732,23.364914 L27.1328719,24.4015946 C27.2715755,24.5400803 27.43026,24.6089598 27.6102333,24.6089598 C27.7897706,24.6089598 27.948891,24.5398623 28.087086,24.4015946 L37.7539809,14.7349904 C37.8922486,14.5967954 37.9613461,14.4373843 37.9613461,14.2576291 C37.9613461,14.0778011 37.8922486,13.9186807 37.7539809,13.7804857 L37.7539809,13.7804857 Z" id="Shape"></path>
            </g>
        </g>
    </g>
</svg>