<?xml version="1.0" encoding="UTF-8"?>
<svg width="33px" height="33px" viewBox="0 0 33 33" version="1.1" xmlns="http://www.w3.org/2000/svg" xmlns:xlink="http://www.w3.org/1999/xlink">
    <!-- Generator: Sketch 40.3 (33839) - http://www.bohemiancoding.com/sketch -->
    <title>LABEL</title>
    <desc>Created with Sketch.</desc>
    <defs></defs>
    <g id="Page-1" stroke="none" stroke-width="1" fill="none" fill-rule="evenodd">
        <g id="Desktop-HD-Copy-3" transform="translate(-367.000000, -1678.000000)" fill="#F7505A">
            <g id="LABEL" transform="translate(367.000000, 1678.000000)">
                <g id="Layer_1">
                    <path d="M14.896,0.463 C14.708,0.275 14.455,0.17 14.189,0.17 L1.232,0.169 C0.681,0.169 0.234,0.614 0.232,1.165 L0.186,14.17 C0.185,14.437 0.29,14.692 0.479,14.881 L17.474,31.876 C17.662,32.064 17.915,32.169 18.181,32.169 C18.447,32.169 18.701,32.064 18.888,31.876 L31.892,18.872 C32.283,18.481 32.283,17.849 31.892,17.458 L14.896,0.463 L14.896,0.463 Z M18.181,29.755 L2.188,13.761 L2.229,2.169 L13.776,2.17 L29.771,18.165 L18.181,29.755 L18.181,29.755 Z" id="Shape"></path>
                    <circle id="Oval" cx="10.362" cy="10.346" r="2.61"></circle>
                </g>
            </g>
        </g>
    </g>
</svg>