<svg id="Layer_1" data-name="Layer 1" xmlns="http://www.w3.org/2000/svg" xmlns:xlink="http://www.w3.org/1999/xlink" viewBox="0 0 180 184.51"><defs><style>.cls-1{fill:none;}.cls-2{clip-path:url(#clip-path);}.cls-3{fill:#070308;}.cls-4{fill:#fff;}</style><clipPath id="clip-path"><rect class="cls-1" width="180" height="184.51"/></clipPath></defs><title>logo_new</title><g class="cls-2"><ellipse class="cls-3" cx="90" cy="92.25" rx="90" ry="92.25"/><path class="cls-4" d="M168,53.56c-6.45,26.62-19.14,42.43-22,70.93-2.29,23.71,7.49,23.92,21.42,13.1,7.28-6,16.22-14.77,22-22.67,1-1.46,4,0,2.5,1.66-5.41,8.53-18.93,22.46-27.25,28.5-9.15,6.86-25,8.94-28.5-5-6-21.42,14.14-68,20.18-83.61,3.74-9.15-1.25-13.52-9.57-6.24-11.23,9.57-26,28.29-39.31,47.84-10.4,15.39-20,31.41-25,41.81C78.36,149,73,136.55,74,134.26c9.57-24.75,18.93-90.06-5-90.06-10.82,0-31.2,15.6-51.37,34.11-5.2,12.27-20.38,51-37.23,72.17-19.55,24.75-42.22,12.48-27-11.65,12.69-20,44.72-52.41,57-63.65l7.9-26.83C10.55,55.64-.05,59-8.79,59.8c-3.12.21-2.7-3.12.42-3.33C3.48,55.23,18,42.33,24.28,27.56c1-3.12,14.35-4,13.52,0L23.45,63.13C39.67,49.4,55.06,39,64,38.59,91.46,36.92,96.87,59,94.58,78.52c-1.46,12.48-6,30.37-10.82,44.72-.62,2.08-3.74,10.4.62,3.33,7.07-10.82,12.9-21.84,20.59-33.49C116,76,129.94,57.51,143,43.37,156.15,29.85,173.2,32.76,168,53.56ZM-26.05,148.2c10-10.61,27-45.55,32.24-59.69-15.6,14.77-36.4,38.69-44.09,49.09C-51.43,155.48-42.28,164.84-26.05,148.2Z"/></g></svg>