<?xml version="1.0" encoding="UTF-8"?>
<svg width="27px" height="27px" viewBox="0 0 27 27" version="1.1" xmlns="http://www.w3.org/2000/svg" xmlns:xlink="http://www.w3.org/1999/xlink">
    <!-- Generator: Sketch 40.3 (33839) - http://www.bohemiancoding.com/sketch -->
    <title>PENCIL</title>
    <desc>Created with Sketch.</desc>
    <defs></defs>
    <g id="Page-1" stroke="none" stroke-width="1" fill="none" fill-rule="evenodd">
        <g id="Desktop-HD" transform="translate(-36.000000, -1079.000000)" fill="#F7505A">
            <g id="PENCIL" transform="translate(48.000000, 1094.500000) scale(-1, -1) rotate(45.000000) translate(-48.000000, -1094.500000) translate(43.000000, 1078.000000)">
                <g id="Layer_1" transform="translate(0.000000, -0.000000)">
                    <path d="M9.934,9.164 C9.918,9.12 9.906,9.074 9.884,9.032 L5.884,1.469 C5.538,0.815 4.462,0.815 4.116,1.469 L0.116,9.032 C0.094,9.074 0.082,9.119 0.066,9.164 C0.061,9.178 0.05,9.188 0.045,9.202 C0.043,9.21 0.045,9.217 0.043,9.225 C0.017,9.314 2.27373675e-13,9.406 2.27373675e-13,9.5 L2.27373675e-13,31.938 C2.27373675e-13,32.491 0.447,32.938 1,32.938 L9,32.938 C9.553,32.938 10,32.491 10,31.938 L10,9.5 C10,9.406 9.983,9.315 9.957,9.225 C9.955,9.217 9.957,9.21 9.955,9.202 C9.951,9.188 9.939,9.178 9.934,9.164 L9.934,9.164 Z M2,10.859 L4.702,11.701 C4.8,11.731 4.899,11.746 5,11.746 C5.101,11.746 5.2,11.731 5.298,11.701 L8,10.859 L8,26.45 L2,26.45 L2,10.859 L2,10.859 Z M5,4.076 L7.553,8.903 L5,9.698 L2.447,8.903 L5,4.076 L5,4.076 Z M2,30.938 L2,28.45 L8,28.45 L8,30.937 L2,30.937 L2,30.938 Z" id="Shape"></path>
                </g>
            </g>
        </g>
    </g>
</svg>